<svg width="369" height="690" viewBox="0 0 369 690" fill="none" xmlns="http://www.w3.org/2000/svg">
<g id="Size=352, State=Active">
<g id="Tab Section">
<rect width="364" height="72" transform="translate(2.5)" fill="#18191B"/>
<g id="Tabs" clip-path="url(#clip0_627_36465)">
<rect width="332" height="40" transform="translate(18.5 16)" fill="white" fill-opacity="0.01"/>
<rect id="lock" x="18.5" y="55" width="332" height="1" fill="#D6EBFD" fill-opacity="0.188235"/>
<g id="content-container">
<g id="Trigger #1" clip-path="url(#clip1_627_36465)">
<rect width="72" height="40" transform="translate(31.5 16)" fill="white" fill-opacity="0.01"/>
<rect id="indicator" x="31.5" y="54" width="72" height="2" fill="#23AFD0"/>
<g id="content-container_2">
<text id="Text" fill="#EDEEF0" xml:space="preserve" style="white-space: pre" font-family="Roboto" font-size="14" font-weight="500" letter-spacing="0px"><tspan x="47.5" y="40.9531">Active</tspan></text>
</g>
</g>
<g id="Trigger #2">
<rect width="79" height="40" transform="translate(143.5 16)" fill="white" fill-opacity="0.01"/>
<g id="content-container_3">
<text id="Text_2" fill="#F1F7FE" fill-opacity="0.709804" xml:space="preserve" style="white-space: pre" font-family="Roboto" font-size="14" letter-spacing="0px"><tspan x="159.5" y="40.9531">Archive</tspan></text>
</g>
</g>
<g id="Trigger #3">
<rect width="75" height="40" transform="translate(262.5 16)" fill="white" fill-opacity="0.01"/>
<g id="content-container_4">
<text id="Text_3" fill="#F1F7FE" fill-opacity="0.709804" xml:space="preserve" style="white-space: pre" font-family="Roboto" font-size="14" letter-spacing="0px"><tspan x="278.5" y="40.9531">Search</tspan></text>
</g>
</g>
</g>
</g>
</g>
<g id="Alert Filters">
<rect width="364" height="48" transform="translate(2.5 72)" fill="#18191B"/>
<g id="Button" opacity="0.92">
<path d="M30.5 84C30.5 81.7909 32.2909 80 34.5 80H118.5C120.709 80 122.5 81.7909 122.5 84V108C122.5 110.209 120.709 112 118.5 112H34.5C32.2909 112 30.5 110.209 30.5 108V84Z" fill="#D9EDFE" fill-opacity="0.145098"/>
<g id="Alerts Unread">
<path id="Red Triangle BG" d="M50.5 88.6665C50.8031 88.665 51.1014 88.7434 51.3655 88.894C51.6296 89.0446 51.8503 89.2622 52.006 89.5255L58.2454 99.9616C58.4071 100.232 58.4949 100.541 58.4998 100.857C58.5047 101.172 58.4265 101.484 58.2733 101.759C58.1201 102.035 57.8973 102.264 57.6279 102.423C57.3584 102.582 57.052 102.666 56.7399 102.667H44.2606C43.9484 102.667 43.6419 102.583 43.3724 102.423C43.1029 102.264 42.8801 102.035 42.7268 101.759C42.5736 101.484 42.4953 101.173 42.5002 100.857C42.5051 100.541 42.5929 100.232 42.7546 99.9616L48.994 89.5255C49.1498 89.2621 49.3708 89.0443 49.6351 88.8937C49.8995 88.7431 50.198 88.6648 50.5013 88.6665H50.5Z" fill="#E5484D"/>
<path id="Red Triangle" d="M50.5013 90.0051C50.4254 90.0038 50.3505 90.0231 50.2843 90.0609C50.2182 90.0987 50.1632 90.1538 50.1251 90.2203L43.8838 100.654C43.8434 100.722 43.8215 100.799 43.8203 100.878C43.8191 100.957 43.8387 101.035 43.8771 101.104C43.9154 101.172 43.9711 101.23 44.0385 101.269C44.1059 101.309 44.1825 101.33 44.2606 101.33H56.7399C56.8179 101.33 56.8945 101.309 56.9619 101.269C57.0293 101.23 57.085 101.172 57.1234 101.104C57.1617 101.035 57.1813 100.957 57.1801 100.878C57.1789 100.799 57.157 100.722 57.1166 100.654L50.8767 90.218C50.8386 90.1514 50.7835 90.0964 50.7173 90.0585C50.651 90.0207 50.576 90.0015 50.5 90.0028M50.5 88.6667C50.8031 88.6651 51.1014 88.7435 51.3655 88.8941C51.6296 89.0447 51.8503 89.2624 52.006 89.5256L58.2454 99.9617C58.4071 100.232 58.4949 100.541 58.4998 100.857C58.5047 101.173 58.4265 101.484 58.2733 101.759C58.1201 102.035 57.8973 102.264 57.6279 102.423C57.3584 102.583 57.052 102.667 56.7399 102.667H44.2606C43.9484 102.667 43.6419 102.583 43.3724 102.423C43.1029 102.264 42.8801 102.035 42.7268 101.76C42.5736 101.484 42.4953 101.173 42.5002 100.857C42.5051 100.541 42.5929 100.232 42.7546 99.9617L48.994 89.5256C49.1498 89.2622 49.3708 89.0445 49.6351 88.8939C49.8995 88.7432 50.198 88.6649 50.5013 88.6667H50.5Z" fill="#E5484D"/>
<g id="Exclamation">
<path d="M51.5 98.7893C51.5 99.3484 51.0523 99.8016 50.5 99.8016C49.9477 99.8016 49.5 99.3484 49.5 98.7893C49.5 98.2302 49.9477 97.777 50.5 97.777C51.0523 97.777 51.5 98.2302 51.5 98.7893Z" fill="#111113"/>
<path d="M50 96.7647L49.5 93.7279H51.5L51 96.7647H50Z" fill="#111113"/>
</g>
</g>
<text id="Button_2" fill="#B0B4BA" xml:space="preserve" style="white-space: pre" font-family="Roboto" font-size="14" font-weight="500" letter-spacing="0px"><tspan x="66.5" y="100.953">00</tspan></text>
<g id="Checkbox">
<rect width="20" height="24" transform="translate(90.5 84)" fill="white" fill-opacity="0.01"/>
<g id="checkbox-container">
<g id="checkbox">
<g clip-path="url(#clip2_627_36465)">
<path d="M90.5 90C90.5 87.7909 92.2909 86 94.5 86H106.5C108.709 86 110.5 87.7909 110.5 90V102C110.5 104.209 108.709 106 106.5 106H94.5C92.2909 106 90.5 104.209 90.5 102V90Z" fill="#DDEAF8" fill-opacity="0.0784314"/>
<g id="Abstract / check">
<rect width="20" height="20" transform="translate(90.5 86)" fill="white" fill-opacity="0.01"/>
<path id="Vector" fill-rule="evenodd" clip-rule="evenodd" d="M105.789 90.9691C106.174 91.221 106.282 91.7374 106.03 92.1226L100.363 100.789C100.23 100.994 100.014 101.129 99.7715 101.16C99.5295 101.191 99.286 101.114 99.1055 100.95L95.4388 97.6165C95.0982 97.3069 95.0732 96.7799 95.3827 96.4394C95.6923 96.0988 96.2194 96.0737 96.5599 96.3833L99.5034 99.0592L104.635 91.2105C104.887 90.8253 105.404 90.7173 105.789 90.9691Z" fill="#D9EDFF" fill-opacity="0.364706"/>
</g>
</g>
<path d="M94.5 86.5H106.5C108.433 86.5 110 88.067 110 90V102C110 103.933 108.433 105.5 106.5 105.5H94.5C92.567 105.5 91 103.933 91 102V90C91 88.067 92.567 86.5 94.5 86.5Z" stroke="#D6EBFD" stroke-opacity="0.188235"/>
</g>
</g>
</g>
</g>
<g id="Button_3" opacity="0.92">
<path d="M138.5 84C138.5 81.7909 140.291 80 142.5 80H226.5C228.709 80 230.5 81.7909 230.5 84V108C230.5 110.209 228.709 112 226.5 112H142.5C140.291 112 138.5 110.209 138.5 108V84Z" fill="#D9EDFE" fill-opacity="0.145098"/>
<g id="Alerts Unread_2">
<path id="Yellow Square" d="M165.833 87.9996C166.202 87.9996 166.5 88.2981 166.5 88.6663L166.5 103.333C166.5 103.701 166.202 104 165.833 104L151.167 104C150.798 104 150.5 103.701 150.5 103.333L150.5 88.6663C150.5 88.2981 150.798 87.9996 151.167 87.9996L165.833 87.9996Z" fill="#FFC53D"/>
<path id="Yellow Triangle Stroke" fill-rule="evenodd" clip-rule="evenodd" d="M165.167 89.333L151.833 89.333L151.833 102.666L165.167 102.666L165.167 89.333ZM166.5 88.6663C166.5 88.2981 166.202 87.9996 165.833 87.9996L151.167 87.9996C150.798 87.9996 150.5 88.2981 150.5 88.6663L150.5 103.333C150.5 103.701 150.798 104 151.167 104L165.833 104C166.202 104 166.5 103.701 166.5 103.333L166.5 88.6663Z" fill="#FFC53D"/>
<g id="Exclamation_2">
<path d="M159.5 98C159.5 98.5523 159.052 99 158.5 99C157.948 99 157.5 98.5523 157.5 98C157.5 97.4477 157.948 97 158.5 97C159.052 97 159.5 97.4477 159.5 98Z" fill="#18191B"/>
<path d="M158 96L157.5 93H159.5L159 96H158Z" fill="#18191B"/>
</g>
</g>
<text id="Button_4" fill="#B0B4BA" xml:space="preserve" style="white-space: pre" font-family="Roboto" font-size="14" font-weight="500" letter-spacing="0px"><tspan x="174.5" y="100.953">01</tspan></text>
<g id="Checkbox_2">
<rect width="20" height="24" transform="translate(198.5 84)" fill="white" fill-opacity="0.01"/>
<g id="checkbox-container_2">
<g id="checkbox_2">
<g clip-path="url(#clip3_627_36465)">
<path d="M198.5 90C198.5 87.7909 200.291 86 202.5 86H214.5C216.709 86 218.5 87.7909 218.5 90V102C218.5 104.209 216.709 106 214.5 106H202.5C200.291 106 198.5 104.209 198.5 102V90Z" fill="#00A2C7"/>
<g id="Abstract / check_2">
<rect width="20" height="20" transform="translate(198.5 86)" fill="white" fill-opacity="0.01"/>
<path id="Vector_2" fill-rule="evenodd" clip-rule="evenodd" d="M213.789 90.9691C214.174 91.221 214.282 91.7374 214.03 92.1226L208.363 100.789C208.23 100.994 208.014 101.129 207.772 101.16C207.529 101.191 207.286 101.114 207.105 100.95L203.439 97.6165C203.098 97.3069 203.073 96.7799 203.383 96.4394C203.692 96.0988 204.219 96.0737 204.56 96.3833L207.503 99.0592L212.635 91.2105C212.887 90.8253 213.404 90.7173 213.789 90.9691Z" fill="white"/>
</g>
</g>
</g>
</g>
</g>
</g>
<g id="Button_5" opacity="0.92">
<path d="M246.5 84C246.5 81.7909 248.291 80 250.5 80H334.5C336.709 80 338.5 81.7909 338.5 84V108C338.5 110.209 336.709 112 334.5 112H250.5C248.291 112 246.5 110.209 246.5 108V84Z" fill="#D9EDFE" fill-opacity="0.145098"/>
<g id="Alerts Unread_3">
<path id="Green Circle" d="M274.5 96C274.5 100.418 270.918 104 266.5 104C262.082 104 258.5 100.418 258.5 96C258.5 91.5817 262.082 88 266.5 88C270.918 88 274.5 91.5817 274.5 96Z" fill="#30A46C"/>
<path id="Green Circle Stroke" fill-rule="evenodd" clip-rule="evenodd" d="M266.5 102.667C270.182 102.667 273.167 99.6819 273.167 96C273.167 92.3181 270.182 89.3333 266.5 89.3333C262.818 89.3333 259.833 92.3181 259.833 96C259.833 99.6819 262.818 102.667 266.5 102.667ZM266.5 104C270.918 104 274.5 100.418 274.5 96C274.5 91.5817 270.918 88 266.5 88C262.082 88 258.5 91.5817 258.5 96C258.5 100.418 262.082 104 266.5 104Z" fill="#30A46C"/>
<g id="Exclamation_3">
<path d="M267.5 98C267.5 98.5523 267.052 99 266.5 99C265.948 99 265.5 98.5523 265.5 98C265.5 97.4477 265.948 97 266.5 97C267.052 97 267.5 97.4477 267.5 98Z" fill="#18191B"/>
<path d="M266 96L265.5 93H267.5L267 96H266Z" fill="#18191B"/>
</g>
</g>
<text id="Button_6" fill="#B0B4BA" xml:space="preserve" style="white-space: pre" font-family="Roboto" font-size="14" font-weight="500" letter-spacing="0px"><tspan x="282.5" y="100.953">01</tspan></text>
<g id="Checkbox_3">
<rect width="20" height="24" transform="translate(306.5 84)" fill="white" fill-opacity="0.01"/>
<g id="checkbox-container_3">
<g id="checkbox_3">
<g clip-path="url(#clip4_627_36465)">
<path d="M306.5 90C306.5 87.7909 308.291 86 310.5 86H322.5C324.709 86 326.5 87.7909 326.5 90V102C326.5 104.209 324.709 106 322.5 106H310.5C308.291 106 306.5 104.209 306.5 102V90Z" fill="#00A2C7"/>
<g id="Abstract / check_3">
<rect width="20" height="20" transform="translate(306.5 86)" fill="white" fill-opacity="0.01"/>
<path id="Vector_3" fill-rule="evenodd" clip-rule="evenodd" d="M321.789 90.9691C322.174 91.221 322.282 91.7374 322.03 92.1226L316.363 100.789C316.23 100.994 316.014 101.129 315.772 101.16C315.529 101.191 315.286 101.114 315.105 100.95L311.439 97.6165C311.098 97.3069 311.073 96.7799 311.383 96.4394C311.692 96.0988 312.219 96.0737 312.56 96.3833L315.503 99.0592L320.635 91.2105C320.887 90.8253 321.404 90.7173 321.789 90.9691Z" fill="white"/>
</g>
</g>
</g>
</g>
</g>
</g>
</g>
<g id="Bar below Alert Filters">
<rect width="364" height="32" transform="translate(2.5 120)" fill="#18191B"/>
<path id="Vector 10" d="M18.5 136H350.5" stroke="#363A3F"/>
</g>
<g id="Active Content">
<rect width="364" height="537" transform="translate(2.5 152)" fill="#18191B"/>
<g id="Alert Manager Cards">
<rect x="18.5" y="152" width="332" height="32" rx="8" fill="#18191B"/>
<g id="Frame 71487">
<g id="Frame 71489">
<g id="Frame 71488">
<g id="Alerts Read">
<path id="Red Triangle BG_2" d="M43.5 159.749C43.841 159.747 44.1766 159.835 44.4737 160.005C44.7707 160.174 45.0191 160.419 45.1943 160.715L52.2136 172.456C52.3955 172.76 52.4943 173.107 52.4998 173.463C52.5053 173.818 52.4173 174.169 52.245 174.478C52.0726 174.788 51.822 175.046 51.5189 175.225C51.2157 175.404 50.871 175.499 50.5199 175.499H36.4806C36.1295 175.499 35.7847 175.404 35.4814 175.225C35.1782 175.046 34.9276 174.788 34.7552 174.478C34.5828 174.169 34.4948 173.818 34.5002 173.463C34.5057 173.107 34.6045 172.76 34.7864 172.456L41.8057 160.715C41.9811 160.419 42.2296 160.174 42.527 160.004C42.8244 159.835 43.1603 159.747 43.5015 159.749H43.5Z" fill="#18191B"/>
<path id="Red Triangle_2" d="M43.5015 161.255C43.4161 161.253 43.3318 161.275 43.2574 161.317C43.1829 161.36 43.1211 161.422 43.0782 161.497L36.0568 173.235C36.0114 173.311 35.9867 173.398 35.9854 173.486C35.984 173.575 36.0061 173.663 36.0492 173.74C36.0923 173.818 36.155 173.882 36.2308 173.927C36.3066 173.972 36.3928 173.995 36.4806 173.995H50.5199C50.6076 173.995 50.6938 173.972 50.7697 173.927C50.8455 173.882 50.9082 173.818 50.9513 173.74C50.9944 173.663 51.0165 173.575 51.0151 173.486C51.0138 173.398 50.9891 173.311 50.9437 173.235L43.9238 161.494C43.8809 161.419 43.8189 161.357 43.7444 161.315C43.6699 161.272 43.5855 161.25 43.5 161.252M43.5 159.749C43.841 159.747 44.1766 159.835 44.4737 160.005C44.7707 160.174 45.0191 160.419 45.1943 160.715L52.2136 172.456C52.3955 172.76 52.4942 173.107 52.4998 173.463C52.5053 173.818 52.4173 174.169 52.245 174.478C52.0726 174.788 51.822 175.046 51.5189 175.225C51.2157 175.404 50.871 175.499 50.5199 175.499H36.4806C36.1295 175.499 35.7847 175.404 35.4814 175.225C35.1782 175.046 34.9276 174.788 34.7552 174.478C34.5828 174.169 34.4948 173.818 34.5002 173.463C34.5057 173.107 34.6045 172.76 34.7864 172.456L41.8057 160.715C41.9811 160.419 42.2296 160.174 42.527 160.004C42.8244 159.835 43.1603 159.747 43.5015 159.749H43.5Z" fill="#8C333A"/>
<g id="Exclamation_4">
<path d="M44.625 171.138C44.625 171.767 44.1213 172.277 43.5 172.277C42.8787 172.277 42.375 171.767 42.375 171.138C42.375 170.509 42.8787 169.999 43.5 169.999C44.1213 169.999 44.625 170.509 44.625 171.138Z" fill="#8C333A"/>
<path d="M42.9375 168.861L42.375 165.444H44.625L44.0625 168.861H42.9375Z" fill="#8C333A"/>
</g>
</g>
<text id="001 Defense Plan Receiver" fill="#B0B4BA" xml:space="preserve" style="white-space: pre" font-family="Roboto" font-size="14" font-weight="500" letter-spacing="0px"><tspan x="68.5" y="172.953">001 Defense Plan Receiver</tspan></text>
</g>
<text id="5 min" fill="#B0B4BA" xml:space="preserve" style="white-space: pre" font-family="Roboto" font-size="14" font-weight="500" letter-spacing="0px"><tspan x="299.5" y="172.953">5 min</tspan></text>
</g>
</g>
</g>
<g id="Alert Manager Cards_2">
<rect x="18.5" y="192" width="332" height="32" rx="8" fill="#18191B"/>
<g id="Frame 71487_2">
<g id="Frame 71489_2">
<g id="Frame 71488_2">
<g id="Alerts Read_2">
<path id="Red Triangle BG_3" d="M43.5 199.749C43.841 199.747 44.1766 199.835 44.4737 200.005C44.7707 200.174 45.0191 200.419 45.1943 200.715L52.2136 212.456C52.3955 212.76 52.4943 213.107 52.4998 213.463C52.5053 213.818 52.4173 214.169 52.245 214.478C52.0726 214.788 51.822 215.046 51.5189 215.225C51.2157 215.404 50.871 215.499 50.5199 215.499H36.4806C36.1295 215.499 35.7847 215.404 35.4814 215.225C35.1782 215.046 34.9276 214.788 34.7552 214.478C34.5828 214.169 34.4948 213.818 34.5002 213.463C34.5057 213.107 34.6045 212.76 34.7864 212.456L41.8057 200.715C41.9811 200.419 42.2296 200.174 42.527 200.004C42.8244 199.835 43.1603 199.747 43.5015 199.749H43.5Z" fill="#18191B"/>
<path id="Red Triangle_3" d="M43.5015 201.255C43.4161 201.253 43.3318 201.275 43.2574 201.317C43.1829 201.36 43.1211 201.422 43.0782 201.497L36.0568 213.235C36.0114 213.311 35.9867 213.398 35.9854 213.486C35.984 213.575 36.0061 213.663 36.0492 213.74C36.0923 213.818 36.155 213.882 36.2308 213.927C36.3066 213.972 36.3928 213.995 36.4806 213.995H50.5199C50.6076 213.995 50.6938 213.972 50.7697 213.927C50.8455 213.882 50.9082 213.818 50.9513 213.74C50.9944 213.663 51.0165 213.575 51.0151 213.486C51.0138 213.398 50.9891 213.311 50.9437 213.235L43.9238 201.494C43.8809 201.419 43.8189 201.357 43.7444 201.315C43.6699 201.272 43.5855 201.25 43.5 201.252M43.5 199.749C43.841 199.747 44.1766 199.835 44.4737 200.005C44.7707 200.174 45.0191 200.419 45.1943 200.715L52.2136 212.456C52.3955 212.76 52.4942 213.107 52.4998 213.463C52.5053 213.818 52.4173 214.169 52.245 214.478C52.0726 214.788 51.822 215.046 51.5189 215.225C51.2157 215.404 50.871 215.499 50.5199 215.499H36.4806C36.1295 215.499 35.7847 215.404 35.4814 215.225C35.1782 215.046 34.9276 214.788 34.7552 214.478C34.5828 214.169 34.4948 213.818 34.5002 213.463C34.5057 213.107 34.6045 212.76 34.7864 212.456L41.8057 200.715C41.9811 200.419 42.2296 200.174 42.527 200.004C42.8244 199.835 43.1603 199.747 43.5015 199.749H43.5Z" fill="#8C333A"/>
<g id="Exclamation_5">
<path d="M44.625 211.138C44.625 211.767 44.1213 212.277 43.5 212.277C42.8787 212.277 42.375 211.767 42.375 211.138C42.375 210.509 42.8787 209.999 43.5 209.999C44.1213 209.999 44.625 210.509 44.625 211.138Z" fill="#8C333A"/>
<path d="M42.9375 208.861L42.375 205.444H44.625L44.0625 208.861H42.9375Z" fill="#8C333A"/>
</g>
</g>
<text id="001 Defense Plan Receiver_2" fill="#B0B4BA" xml:space="preserve" style="white-space: pre" font-family="Roboto" font-size="14" font-weight="500" letter-spacing="0px"><tspan x="68.5" y="212.953">001 Defense Plan Receiver</tspan></text>
</g>
<text id="5 min_2" fill="#B0B4BA" xml:space="preserve" style="white-space: pre" font-family="Roboto" font-size="14" font-weight="500" letter-spacing="0px"><tspan x="299.5" y="212.953">5 min</tspan></text>
</g>
</g>
</g>
<g id="Alert Manager Cards_3">
<mask id="path-45-inside-1_627_36465" fill="white">
<path d="M18.5 240C18.5 235.582 22.0817 232 26.5 232H342.5C346.918 232 350.5 235.582 350.5 240V256C350.5 260.418 346.918 264 342.5 264H26.5C22.0817 264 18.5 260.418 18.5 256V240Z"/>
</mask>
<path d="M18.5 240C18.5 235.582 22.0817 232 26.5 232H342.5C346.918 232 350.5 235.582 350.5 240V256C350.5 260.418 346.918 264 342.5 264H26.5C22.0817 264 18.5 260.418 18.5 256V240Z" fill="#212225"/>
<path d="M18.5 232H350.5H18.5ZM350.5 264H18.5H350.5ZM26.5 264C20.4249 264 15.5 259.075 15.5 253V243C15.5 236.925 20.4249 232 26.5 232C23.7386 232 21.5 235.582 21.5 240V256C21.5 260.418 23.7386 264 26.5 264ZM350.5 232V264V232Z" fill="#FFE629" mask="url(#path-45-inside-1_627_36465)"/>
<g id="Frame 71487_3">
<g id="Frame 71489_3">
<g id="Frame 71488_3">
<g id="Alerts Unread_4">
<path id="Yellow Square_2" d="M51.75 239.001C52.1642 239.001 52.5 239.337 52.5 239.751L52.5 256.251C52.5 256.665 52.1642 257.001 51.75 257.001L35.25 257.001C34.8358 257.001 34.5 256.665 34.5 256.251L34.5 239.751C34.5 239.337 34.8358 239.001 35.25 239.001L51.75 239.001Z" fill="#FFC53D"/>
<path id="Yellow Triangle Stroke_2" fill-rule="evenodd" clip-rule="evenodd" d="M51 240.501L36 240.501L36 255.501L51 255.501L51 240.501ZM52.5 239.751C52.5 239.336 52.1642 239.001 51.75 239.001L35.25 239.001C34.8358 239.001 34.5 239.336 34.5 239.751L34.5 256.251C34.5 256.665 34.8358 257.001 35.25 257.001L51.75 257.001C52.1642 257.001 52.5 256.665 52.5 256.251L52.5 239.751Z" fill="#FFC53D"/>
<g id="Exclamation_6">
<path d="M44.625 250.25C44.625 250.871 44.1213 251.375 43.5 251.375C42.8787 251.375 42.375 250.871 42.375 250.25C42.375 249.629 42.8787 249.125 43.5 249.125C44.1213 249.125 44.625 249.629 44.625 250.25Z" fill="#111113"/>
<path d="M42.9375 248L42.375 244.625H44.625L44.0625 248H42.9375Z" fill="#111113"/>
</g>
</g>
<text id="001 Defense Plan Receiver_3" fill="#EDEEF0" xml:space="preserve" style="white-space: pre" font-family="Roboto" font-size="14" font-weight="500" letter-spacing="0px"><tspan x="68.5" y="252.953">001 Defense Plan Receiver</tspan></text>
</g>
<text id="Now" fill="#EDEEF0" xml:space="preserve" style="white-space: pre" font-family="Roboto" font-size="14" font-weight="500" letter-spacing="0px"><tspan x="305.5" y="252.953">Now</tspan></text>
</g>
</g>
</g>
<g id="Alert Manager Cards_4">
<rect x="18.5" y="272" width="332" height="32" rx="8" fill="#18191B"/>
<g id="Frame 71487_4">
<g id="Frame 71489_4">
<g id="Frame 71488_4">
<g id="Alerts Read_3">
<path id="Yellow Square_3" d="M51.75 279.001C52.1642 279.001 52.5 279.337 52.5 279.751L52.5 296.251C52.5 296.665 52.1642 297.001 51.75 297.001L35.25 297.001C34.8358 297.001 34.5 296.665 34.5 296.251L34.5 279.751C34.5 279.337 34.8358 279.001 35.25 279.001L51.75 279.001Z" fill="#18191B"/>
<path id="Yellow Triangle Stroke_3" fill-rule="evenodd" clip-rule="evenodd" d="M51 280.501L36 280.501L36 295.501L51 295.501L51 280.501ZM52.5 279.751C52.5 279.336 52.1642 279.001 51.75 279.001L35.25 279.001C34.8358 279.001 34.5 279.336 34.5 279.751L34.5 296.251C34.5 296.665 34.8358 297.001 35.25 297.001L51.75 297.001C52.1642 297.001 52.5 296.665 52.5 296.251L52.5 279.751Z" fill="#714F19"/>
<g id="Exclamation_7">
<path d="M44.625 290.25C44.625 290.871 44.1213 291.375 43.5 291.375C42.8787 291.375 42.375 290.871 42.375 290.25C42.375 289.629 42.8787 289.125 43.5 289.125C44.1213 289.125 44.625 289.629 44.625 290.25Z" fill="#714F19"/>
<path d="M42.9375 288L42.375 284.625H44.625L44.0625 288H42.9375Z" fill="#714F19"/>
</g>
</g>
<text id="001 Defense Plan Receiver_4" fill="#B0B4BA" xml:space="preserve" style="white-space: pre" font-family="Roboto" font-size="14" font-weight="500" letter-spacing="0px"><tspan x="68.5" y="292.953">001 Defense Plan Receiver</tspan></text>
</g>
<text id="5 min_3" fill="#B0B4BA" xml:space="preserve" style="white-space: pre" font-family="Roboto" font-size="14" font-weight="500" letter-spacing="0px"><tspan x="299.5" y="292.953">5 min</tspan></text>
</g>
</g>
</g>
<g id="Alert Manager Cards_5">
<mask id="path-58-inside-2_627_36465" fill="white">
<path d="M18.5 320C18.5 315.582 22.0817 312 26.5 312H342.5C346.918 312 350.5 315.582 350.5 320V336C350.5 340.418 346.918 344 342.5 344H26.5C22.0817 344 18.5 340.418 18.5 336V320Z"/>
</mask>
<path d="M18.5 320C18.5 315.582 22.0817 312 26.5 312H342.5C346.918 312 350.5 315.582 350.5 320V336C350.5 340.418 346.918 344 342.5 344H26.5C22.0817 344 18.5 340.418 18.5 336V320Z" fill="#212225"/>
<path d="M18.5 312H350.5H18.5ZM350.5 344H18.5H350.5ZM26.5 344C20.4249 344 15.5 339.075 15.5 333V323C15.5 316.925 20.4249 312 26.5 312C23.7386 312 21.5 315.582 21.5 320V336C21.5 340.418 23.7386 344 26.5 344ZM350.5 312V344V312Z" fill="#30A46C" mask="url(#path-58-inside-2_627_36465)"/>
<g id="Frame 71487_5">
<g id="Frame 71489_5">
<g id="Frame 71488_5">
<g id="Alerts Unread_5">
<path id="Green Circle_2" d="M52.5 328C52.5 332.971 48.4706 337 43.5 337C38.5294 337 34.5 332.971 34.5 328C34.5 323.029 38.5294 319 43.5 319C48.4706 319 52.5 323.029 52.5 328Z" fill="#30A46C"/>
<path id="Green Circle Stroke_2" fill-rule="evenodd" clip-rule="evenodd" d="M43.5 335.5C47.6421 335.5 51 332.142 51 328C51 323.858 47.6421 320.5 43.5 320.5C39.3579 320.5 36 323.858 36 328C36 332.142 39.3579 335.5 43.5 335.5ZM43.5 337C48.4706 337 52.5 332.971 52.5 328C52.5 323.029 48.4706 319 43.5 319C38.5294 319 34.5 323.029 34.5 328C34.5 332.971 38.5294 337 43.5 337Z" fill="#30A46C"/>
<g id="Exclamation_8">
<path d="M44.625 330.25C44.625 330.871 44.1213 331.375 43.5 331.375C42.8787 331.375 42.375 330.871 42.375 330.25C42.375 329.629 42.8787 329.125 43.5 329.125C44.1213 329.125 44.625 329.629 44.625 330.25Z" fill="#111113"/>
<path d="M42.9375 328L42.375 324.625H44.625L44.0625 328H42.9375Z" fill="#111113"/>
</g>
</g>
<text id="001 Defense Plan Receiver_5" fill="#EDEEF0" xml:space="preserve" style="white-space: pre" font-family="Roboto" font-size="14" font-weight="500" letter-spacing="0px"><tspan x="68.5" y="332.953">001 Defense Plan Receiver</tspan></text>
</g>
<text id="Now_2" fill="#EDEEF0" xml:space="preserve" style="white-space: pre" font-family="Roboto" font-size="14" font-weight="500" letter-spacing="0px"><tspan x="305.5" y="332.953">Now</tspan></text>
</g>
</g>
</g>
<g id="Alert Manager Cards_6">
<rect x="18.5" y="352" width="332" height="32" rx="8" fill="#18191B"/>
<g id="Frame 71487_6">
<g id="Frame 71489_6">
<g id="Frame 71488_6">
<g id="Alerts Read_4">
<path id="Green Circle_3" d="M52.5 368C52.5 372.971 48.4706 377 43.5 377C38.5294 377 34.5 372.971 34.5 368C34.5 363.029 38.5294 359 43.5 359C48.4706 359 52.5 363.029 52.5 368Z" fill="#18191B"/>
<path id="Green Circle Stroke_3" fill-rule="evenodd" clip-rule="evenodd" d="M43.5 375.5C47.6421 375.5 51 372.142 51 368C51 363.858 47.6421 360.5 43.5 360.5C39.3579 360.5 36 363.858 36 368C36 372.142 39.3579 375.5 43.5 375.5ZM43.5 377C48.4706 377 52.5 372.971 52.5 368C52.5 363.029 48.4706 359 43.5 359C38.5294 359 34.5 363.029 34.5 368C34.5 372.971 38.5294 377 43.5 377Z" fill="#28684A"/>
<g id="Exclamation_9">
<path d="M44.625 370.25C44.625 370.871 44.1213 371.375 43.5 371.375C42.8787 371.375 42.375 370.871 42.375 370.25C42.375 369.629 42.8787 369.125 43.5 369.125C44.1213 369.125 44.625 369.629 44.625 370.25Z" fill="#28684A"/>
<path d="M42.9375 368L42.375 364.625H44.625L44.0625 368H42.9375Z" fill="#28684A"/>
</g>
</g>
<text id="001 Defense Plan Receiver_6" fill="#B0B4BA" xml:space="preserve" style="white-space: pre" font-family="Roboto" font-size="14" font-weight="500" letter-spacing="0px"><tspan x="68.5" y="372.953">001 Defense Plan Receiver</tspan></text>
</g>
<text id="5 min_4" fill="#B0B4BA" xml:space="preserve" style="white-space: pre" font-family="Roboto" font-size="14" font-weight="500" letter-spacing="0px"><tspan x="299.5" y="372.953">5 min</tspan></text>
</g>
</g>
</g>
<g id="Alert Manager Cards_7">
<rect x="18.5" y="392" width="332" height="32" rx="8" fill="#18191B"/>
<g id="Frame 71487_7">
<g id="Frame 71489_7">
<g id="Frame 71488_7">
<g id="Alerts Read_5">
<path id="Green Circle_4" d="M52.5 408C52.5 412.971 48.4706 417 43.5 417C38.5294 417 34.5 412.971 34.5 408C34.5 403.029 38.5294 399 43.5 399C48.4706 399 52.5 403.029 52.5 408Z" fill="#18191B"/>
<path id="Green Circle Stroke_4" fill-rule="evenodd" clip-rule="evenodd" d="M43.5 415.5C47.6421 415.5 51 412.142 51 408C51 403.858 47.6421 400.5 43.5 400.5C39.3579 400.5 36 403.858 36 408C36 412.142 39.3579 415.5 43.5 415.5ZM43.5 417C48.4706 417 52.5 412.971 52.5 408C52.5 403.029 48.4706 399 43.5 399C38.5294 399 34.5 403.029 34.5 408C34.5 412.971 38.5294 417 43.5 417Z" fill="#28684A"/>
<g id="Exclamation_10">
<path d="M44.625 410.25C44.625 410.871 44.1213 411.375 43.5 411.375C42.8787 411.375 42.375 410.871 42.375 410.25C42.375 409.629 42.8787 409.125 43.5 409.125C44.1213 409.125 44.625 409.629 44.625 410.25Z" fill="#28684A"/>
<path d="M42.9375 408L42.375 404.625H44.625L44.0625 408H42.9375Z" fill="#28684A"/>
</g>
</g>
<text id="001 Defense Plan Receiver_7" fill="#B0B4BA" xml:space="preserve" style="white-space: pre" font-family="Roboto" font-size="14" font-weight="500" letter-spacing="0px"><tspan x="68.5" y="412.953">001 Defense Plan Receiver</tspan></text>
</g>
<text id="5 min_5" fill="#B0B4BA" xml:space="preserve" style="white-space: pre" font-family="Roboto" font-size="14" font-weight="500" letter-spacing="0px"><tspan x="299.5" y="412.953">5 min</tspan></text>
</g>
</g>
</g>
</g>
</g>
<defs>
<clipPath id="clip0_627_36465">
<rect width="332" height="40" fill="white" transform="translate(18.5 16)"/>
</clipPath>
<clipPath id="clip1_627_36465">
<rect width="72" height="40" fill="white" transform="translate(31.5 16)"/>
</clipPath>
<clipPath id="clip2_627_36465">
<path d="M90.5 90C90.5 87.7909 92.2909 86 94.5 86H106.5C108.709 86 110.5 87.7909 110.5 90V102C110.5 104.209 108.709 106 106.5 106H94.5C92.2909 106 90.5 104.209 90.5 102V90Z" fill="white"/>
</clipPath>
<clipPath id="clip3_627_36465">
<path d="M198.5 90C198.5 87.7909 200.291 86 202.5 86H214.5C216.709 86 218.5 87.7909 218.5 90V102C218.5 104.209 216.709 106 214.5 106H202.5C200.291 106 198.5 104.209 198.5 102V90Z" fill="white"/>
</clipPath>
<clipPath id="clip4_627_36465">
<path d="M306.5 90C306.5 87.7909 308.291 86 310.5 86H322.5C324.709 86 326.5 87.7909 326.5 90V102C326.5 104.209 324.709 106 322.5 106H310.5C308.291 106 306.5 104.209 306.5 102V90Z" fill="white"/>
</clipPath>
</defs>
</svg>
